<svg xmlns="http://www.w3.org/2000/svg" xmlns:xlink="http://www.w3.org/1999/xlink" width="1920" zoomAndPan="magnify" viewBox="0 0 1440 809.999993" height="1080" preserveAspectRatio="xMidYMid meet" version="1.0"><defs><clipPath id="7555de4280"><path d="M 622.242188 341.953125 L 748.21875 341.953125 L 748.21875 467.929688 L 622.242188 467.929688 Z M 622.242188 341.953125 " clip-rule="nonzero"/></clipPath><clipPath id="906521dd7a"><path d="M 748.265625 404.964844 C 748.265625 407.027344 748.167969 409.085938 747.964844 411.140625 C 747.761719 413.195312 747.460938 415.234375 747.054688 417.257812 C 746.652344 419.28125 746.152344 421.28125 745.554688 423.257812 C 744.953125 425.230469 744.261719 427.171875 743.472656 429.078125 C 742.679688 430.984375 741.800781 432.847656 740.828125 434.667969 C 739.855469 436.488281 738.792969 438.257812 737.648438 439.972656 C 736.5 441.6875 735.273438 443.34375 733.964844 444.941406 C 732.65625 446.535156 731.269531 448.0625 729.8125 449.523438 C 728.351562 450.980469 726.824219 452.367188 725.230469 453.675781 C 723.632812 454.984375 721.980469 456.210938 720.261719 457.359375 C 718.546875 458.503906 716.777344 459.566406 714.957031 460.539062 C 713.136719 461.511719 711.273438 462.390625 709.367188 463.179688 C 707.460938 463.972656 705.519531 464.664062 703.546875 465.265625 C 701.570312 465.863281 699.570312 466.363281 697.546875 466.765625 C 695.523438 467.167969 693.484375 467.472656 691.429688 467.675781 C 689.378906 467.875 687.320312 467.976562 685.253906 467.976562 C 683.191406 467.976562 681.132812 467.875 679.078125 467.675781 C 677.023438 467.472656 674.984375 467.167969 672.960938 466.765625 C 670.9375 466.363281 668.9375 465.863281 666.964844 465.265625 C 664.988281 464.664062 663.046875 463.972656 661.140625 463.179688 C 659.234375 462.390625 657.371094 461.511719 655.550781 460.539062 C 653.730469 459.566406 651.960938 458.503906 650.246094 457.359375 C 648.53125 456.210938 646.875 454.984375 645.28125 453.675781 C 643.683594 452.367188 642.15625 450.980469 640.699219 449.523438 C 639.238281 448.0625 637.855469 446.535156 636.546875 444.941406 C 635.234375 443.34375 634.007812 441.6875 632.863281 439.972656 C 631.714844 438.257812 630.65625 436.488281 629.683594 434.667969 C 628.710938 432.847656 627.828125 430.984375 627.039062 429.078125 C 626.25 427.171875 625.554688 425.230469 624.957031 423.257812 C 624.355469 421.28125 623.855469 419.28125 623.453125 417.257812 C 623.050781 415.234375 622.746094 413.195312 622.546875 411.140625 C 622.34375 409.085938 622.242188 407.027344 622.242188 404.964844 C 622.242188 402.902344 622.34375 400.84375 622.546875 398.789062 C 622.746094 396.734375 623.050781 394.695312 623.453125 392.671875 C 623.855469 390.648438 624.355469 388.648438 624.957031 386.671875 C 625.554688 384.699219 626.25 382.757812 627.039062 380.851562 C 627.828125 378.945312 628.710938 377.082031 629.683594 375.261719 C 630.65625 373.441406 631.714844 371.671875 632.863281 369.957031 C 634.007812 368.242188 635.234375 366.585938 636.546875 364.992188 C 637.855469 363.394531 639.238281 361.867188 640.699219 360.410156 C 642.15625 358.949219 643.683594 357.566406 645.28125 356.253906 C 646.875 354.945312 648.53125 353.71875 650.246094 352.570312 C 651.960938 351.425781 653.730469 350.367188 655.550781 349.394531 C 657.371094 348.421875 659.234375 347.539062 661.140625 346.75 C 663.046875 345.960938 664.988281 345.265625 666.964844 344.664062 C 668.9375 344.066406 670.9375 343.566406 672.960938 343.164062 C 674.984375 342.761719 677.023438 342.457031 679.078125 342.257812 C 681.132812 342.054688 683.191406 341.953125 685.253906 341.953125 C 687.320312 341.953125 689.378906 342.054688 691.429688 342.257812 C 693.484375 342.457031 695.523438 342.761719 697.546875 343.164062 C 699.570312 343.566406 701.570312 344.066406 703.546875 344.664062 C 705.519531 345.265625 707.460938 345.960938 709.367188 346.75 C 711.273438 347.539062 713.136719 348.421875 714.957031 349.394531 C 716.777344 350.367188 718.546875 351.425781 720.261719 352.570312 C 721.980469 353.71875 723.632812 354.945312 725.230469 356.253906 C 726.824219 357.566406 728.351562 358.949219 729.8125 360.410156 C 731.269531 361.867188 732.65625 363.394531 733.964844 364.992188 C 735.273438 366.585938 736.5 368.242188 737.648438 369.957031 C 738.792969 371.671875 739.855469 373.441406 740.828125 375.261719 C 741.800781 377.082031 742.679688 378.945312 743.472656 380.851562 C 744.261719 382.757812 744.953125 384.699219 745.554688 386.671875 C 746.152344 388.648438 746.652344 390.648438 747.054688 392.671875 C 747.460938 394.695312 747.761719 396.734375 747.964844 398.789062 C 748.167969 400.84375 748.265625 402.902344 748.265625 404.964844 Z M 748.265625 404.964844 " clip-rule="nonzero"/></clipPath><linearGradient x1="2.064022" gradientTransform="matrix(0.74424, 0, 0, 0.74424, 620.729981, 340.440017)" y1="171.333968" x2="171.332754" gradientUnits="userSpaceOnUse" y2="2.065236" id="ed32100ca4"><stop stop-opacity="1" stop-color="rgb(54.098511%, 13.699341%, 52.89917%)" offset="0"/><stop stop-opacity="1" stop-color="rgb(54.098511%, 13.699341%, 52.89917%)" offset="0.125"/><stop stop-opacity="1" stop-color="rgb(54.098511%, 13.699341%, 52.89917%)" offset="0.140625"/><stop stop-opacity="1" stop-color="rgb(54.519653%, 13.899231%, 52.682495%)" offset="0.144531"/><stop stop-opacity="1" stop-color="rgb(54.942322%, 14.099121%, 52.467346%)" offset="0.148438"/><stop stop-opacity="1" stop-color="rgb(55.532837%, 14.111328%, 52.320862%)" offset="0.152344"/><stop stop-opacity="1" stop-color="rgb(56.123352%, 14.123535%, 52.174377%)" offset="0.15625"/><stop stop-opacity="1" stop-color="rgb(56.513977%, 14.311218%, 51.786804%)" offset="0.160156"/><stop stop-opacity="1" stop-color="rgb(56.904602%, 14.498901%, 51.399231%)" offset="0.164062"/><stop stop-opacity="1" stop-color="rgb(57.246399%, 14.692688%, 51.205444%)" offset="0.167969"/><stop stop-opacity="1" stop-color="rgb(57.589722%, 14.886475%, 51.011658%)" offset="0.171875"/><stop stop-opacity="1" stop-color="rgb(57.978821%, 14.892578%, 50.820923%)" offset="0.175781"/><stop stop-opacity="1" stop-color="rgb(58.36792%, 14.898682%, 50.631714%)" offset="0.179687"/><stop stop-opacity="1" stop-color="rgb(58.758545%, 15.098572%, 50.440979%)" offset="0.183594"/><stop stop-opacity="1" stop-color="rgb(59.14917%, 15.299988%, 50.250244%)" offset="0.1875"/><stop stop-opacity="1" stop-color="rgb(59.603882%, 15.499878%, 50.024414%)" offset="0.191406"/><stop stop-opacity="1" stop-color="rgb(60.06012%, 15.699768%, 49.798584%)" offset="0.195312"/><stop stop-opacity="1" stop-color="rgb(60.635376%, 15.705872%, 49.59259%)" offset="0.199219"/><stop stop-opacity="1" stop-color="rgb(61.210632%, 15.711975%, 49.386597%)" offset="0.203125"/><stop stop-opacity="1" stop-color="rgb(61.601257%, 15.905762%, 49.19281%)" offset="0.207031"/><stop stop-opacity="1" stop-color="rgb(61.991882%, 16.099548%, 48.999023%)" offset="0.210937"/><stop stop-opacity="1" stop-color="rgb(62.335205%, 16.285706%, 48.799133%)" offset="0.214844"/><stop stop-opacity="1" stop-color="rgb(62.680054%, 16.473389%, 48.599243%)" offset="0.21875"/><stop stop-opacity="1" stop-color="rgb(63.067627%, 16.485596%, 48.399353%)" offset="0.222656"/><stop stop-opacity="1" stop-color="rgb(63.4552%, 16.499329%, 48.199463%)" offset="0.226562"/><stop stop-opacity="1" stop-color="rgb(63.91449%, 16.699219%, 47.98584%)" offset="0.230469"/><stop stop-opacity="1" stop-color="rgb(64.373779%, 16.899109%, 47.772217%)" offset="0.234375"/><stop stop-opacity="1" stop-color="rgb(64.945984%, 17.098999%, 47.434998%)" offset="0.238281"/><stop stop-opacity="1" stop-color="rgb(65.518188%, 17.298889%, 47.099304%)" offset="0.242187"/><stop stop-opacity="1" stop-color="rgb(65.908813%, 17.298889%, 46.899414%)" offset="0.246094"/><stop stop-opacity="1" stop-color="rgb(66.299438%, 17.298889%, 46.699524%)" offset="0.25"/><stop stop-opacity="1" stop-color="rgb(66.690063%, 17.448425%, 46.508789%)" offset="0.253906"/><stop stop-opacity="1" stop-color="rgb(67.080688%, 17.599487%, 46.318054%)" offset="0.257812"/><stop stop-opacity="1" stop-color="rgb(67.425537%, 17.779541%, 46.127319%)" offset="0.261719"/><stop stop-opacity="1" stop-color="rgb(67.770386%, 17.961121%, 45.936584%)" offset="0.265625"/><stop stop-opacity="1" stop-color="rgb(68.206787%, 18.000793%, 45.695496%)" offset="0.269531"/><stop stop-opacity="1" stop-color="rgb(68.643188%, 18.041992%, 45.455933%)" offset="0.273438"/><stop stop-opacity="1" stop-color="rgb(69.233704%, 18.22052%, 45.265198%)" offset="0.277344"/><stop stop-opacity="1" stop-color="rgb(69.824219%, 18.399048%, 45.074463%)" offset="0.28125"/><stop stop-opacity="1" stop-color="rgb(70.214844%, 18.598938%, 44.883728%)" offset="0.285156"/><stop stop-opacity="1" stop-color="rgb(70.605469%, 18.798828%, 44.692993%)" offset="0.289062"/><stop stop-opacity="1" stop-color="rgb(70.996094%, 18.798828%, 44.496155%)" offset="0.292969"/><stop stop-opacity="1" stop-color="rgb(71.386719%, 18.798828%, 44.299316%)" offset="0.296875"/><stop stop-opacity="1" stop-color="rgb(71.777344%, 18.998718%, 44.099426%)" offset="0.300781"/><stop stop-opacity="1" stop-color="rgb(72.167969%, 19.198608%, 43.899536%)" offset="0.304687"/><stop stop-opacity="1" stop-color="rgb(72.50824%, 19.372559%, 43.52417%)" offset="0.308594"/><stop stop-opacity="1" stop-color="rgb(72.848511%, 19.548035%, 43.15033%)" offset="0.3125"/><stop stop-opacity="1" stop-color="rgb(73.48938%, 19.589233%, 42.9245%)" offset="0.316406"/><stop stop-opacity="1" stop-color="rgb(74.130249%, 19.630432%, 42.698669%)" offset="0.320312"/><stop stop-opacity="1" stop-color="rgb(74.520874%, 19.815063%, 42.549133%)" offset="0.324219"/><stop stop-opacity="1" stop-color="rgb(74.911499%, 19.999695%, 42.399597%)" offset="0.328125"/><stop stop-opacity="1" stop-color="rgb(75.302124%, 20.195007%, 42.202759%)" offset="0.332031"/><stop stop-opacity="1" stop-color="rgb(75.692749%, 20.391846%, 42.00592%)" offset="0.335937"/><stop stop-opacity="1" stop-color="rgb(76.083374%, 20.394897%, 41.815186%)" offset="0.339844"/><stop stop-opacity="1" stop-color="rgb(76.473999%, 20.399475%, 41.624451%)" offset="0.34375"/><stop stop-opacity="1" stop-color="rgb(76.864624%, 20.599365%, 41.433716%)" offset="0.347656"/><stop stop-opacity="1" stop-color="rgb(77.255249%, 20.799255%, 41.242981%)" offset="0.351562"/><stop stop-opacity="1" stop-color="rgb(77.664185%, 20.999146%, 41.001892%)" offset="0.355469"/><stop stop-opacity="1" stop-color="rgb(78.07312%, 21.199036%, 40.762329%)" offset="0.359375"/><stop stop-opacity="1" stop-color="rgb(78.645325%, 21.208191%, 40.571594%)" offset="0.363281"/><stop stop-opacity="1" stop-color="rgb(79.217529%, 21.217346%, 40.380859%)" offset="0.367187"/><stop stop-opacity="1" stop-color="rgb(79.608154%, 21.408081%, 40.190125%)" offset="0.371094"/><stop stop-opacity="1" stop-color="rgb(79.998779%, 21.598816%, 39.99939%)" offset="0.375"/><stop stop-opacity="1" stop-color="rgb(80.389404%, 21.789551%, 39.7995%)" offset="0.378906"/><stop stop-opacity="1" stop-color="rgb(80.780029%, 21.980286%, 39.599609%)" offset="0.382812"/><stop stop-opacity="1" stop-color="rgb(81.170654%, 21.989441%, 39.21814%)" offset="0.386719"/><stop stop-opacity="1" stop-color="rgb(81.561279%, 21.998596%, 38.83667%)" offset="0.390625"/><stop stop-opacity="1" stop-color="rgb(82.017517%, 22.198486%, 38.616943%)" offset="0.394531"/><stop stop-opacity="1" stop-color="rgb(82.475281%, 22.399902%, 38.398743%)" offset="0.398438"/><stop stop-opacity="1" stop-color="rgb(82.998657%, 22.549438%, 38.198853%)" offset="0.402344"/><stop stop-opacity="1" stop-color="rgb(83.52356%, 22.698975%, 37.998962%)" offset="0.40625"/><stop stop-opacity="1" stop-color="rgb(83.914185%, 22.702026%, 37.799072%)" offset="0.410156"/><stop stop-opacity="1" stop-color="rgb(84.30481%, 22.705078%, 37.599182%)" offset="0.414062"/><stop stop-opacity="1" stop-color="rgb(84.695435%, 22.901917%, 37.454224%)" offset="0.417969"/><stop stop-opacity="1" stop-color="rgb(85.08606%, 23.098755%, 37.309265%)" offset="0.421875"/><stop stop-opacity="1" stop-color="rgb(85.476685%, 23.283386%, 37.103271%)" offset="0.425781"/><stop stop-opacity="1" stop-color="rgb(85.86731%, 23.468018%, 36.898804%)" offset="0.429687"/><stop stop-opacity="1" stop-color="rgb(86.257935%, 23.483276%, 36.698914%)" offset="0.433594"/><stop stop-opacity="1" stop-color="rgb(86.64856%, 23.498535%, 36.499023%)" offset="0.4375"/><stop stop-opacity="1" stop-color="rgb(87.239075%, 23.698425%, 36.283875%)" offset="0.441406"/><stop stop-opacity="1" stop-color="rgb(87.82959%, 23.899841%, 36.068726%)" offset="0.445312"/><stop stop-opacity="1" stop-color="rgb(88.220215%, 24.099731%, 35.877991%)" offset="0.449219"/><stop stop-opacity="1" stop-color="rgb(88.61084%, 24.299622%, 35.687256%)" offset="0.453125"/><stop stop-opacity="1" stop-color="rgb(89.001465%, 24.299622%, 35.493469%)" offset="0.457031"/><stop stop-opacity="1" stop-color="rgb(89.39209%, 24.299622%, 35.299683%)" offset="0.460937"/><stop stop-opacity="1" stop-color="rgb(89.782715%, 24.499512%, 34.912109%)" offset="0.464844"/><stop stop-opacity="1" stop-color="rgb(90.17334%, 24.699402%, 34.524536%)" offset="0.46875"/><stop stop-opacity="1" stop-color="rgb(90.563965%, 24.876404%, 34.333801%)" offset="0.472656"/><stop stop-opacity="1" stop-color="rgb(90.95459%, 25.054932%, 34.143066%)" offset="0.476562"/><stop stop-opacity="1" stop-color="rgb(91.175842%, 25.276184%, 33.920288%)" offset="0.480469"/><stop stop-opacity="1" stop-color="rgb(91.398621%, 25.498962%, 33.699036%)" offset="0.484375"/><stop stop-opacity="1" stop-color="rgb(91.398621%, 25.698853%, 33.499146%)" offset="0.488281"/><stop stop-opacity="1" stop-color="rgb(91.398621%, 25.898743%, 33.299255%)" offset="0.492187"/><stop stop-opacity="1" stop-color="rgb(91.598511%, 26.098633%, 33.099365%)" offset="0.496094"/><stop stop-opacity="1" stop-color="rgb(91.798401%, 26.298523%, 32.899475%)" offset="0.5"/><stop stop-opacity="1" stop-color="rgb(91.798401%, 26.489258%, 32.699585%)" offset="0.503906"/><stop stop-opacity="1" stop-color="rgb(91.799927%, 26.679993%, 32.499695%)" offset="0.507812"/><stop stop-opacity="1" stop-color="rgb(91.799927%, 26.870728%, 32.348633%)" offset="0.515625"/><stop stop-opacity="1" stop-color="rgb(91.799927%, 27.279663%, 31.977844%)" offset="0.519531"/><stop stop-opacity="1" stop-color="rgb(91.799927%, 27.49939%, 31.756592%)" offset="0.523437"/><stop stop-opacity="1" stop-color="rgb(91.799927%, 27.648926%, 31.565857%)" offset="0.53125"/><stop stop-opacity="1" stop-color="rgb(91.801453%, 27.999878%, 30.987549%)" offset="0.535156"/><stop stop-opacity="1" stop-color="rgb(91.804504%, 28.199768%, 30.599976%)" offset="0.539063"/><stop stop-opacity="1" stop-color="rgb(92.001343%, 28.392029%, 30.406189%)" offset="0.542969"/><stop stop-opacity="1" stop-color="rgb(92.199707%, 28.585815%, 30.212402%)" offset="0.546875"/><stop stop-opacity="1" stop-color="rgb(92.199707%, 28.77655%, 30.021667%)" offset="0.554688"/><stop stop-opacity="1" stop-color="rgb(92.199707%, 29.15802%, 29.640198%)" offset="0.5625"/><stop stop-opacity="1" stop-color="rgb(92.199707%, 29.573059%, 29.208374%)" offset="0.566406"/><stop stop-opacity="1" stop-color="rgb(92.199707%, 29.798889%, 28.968811%)" offset="0.570312"/><stop stop-opacity="1" stop-color="rgb(92.199707%, 29.998779%, 28.778076%)" offset="0.574219"/><stop stop-opacity="1" stop-color="rgb(92.199707%, 30.198669%, 28.587341%)" offset="0.578125"/><stop stop-opacity="1" stop-color="rgb(92.346191%, 30.395508%, 28.393555%)" offset="0.582031"/><stop stop-opacity="1" stop-color="rgb(92.494202%, 30.592346%, 28.199768%)" offset="0.585938"/><stop stop-opacity="1" stop-color="rgb(92.495728%, 30.783081%, 27.999878%)" offset="0.589844"/><stop stop-opacity="1" stop-color="rgb(92.498779%, 30.973816%, 27.799988%)" offset="0.59375"/><stop stop-opacity="1" stop-color="rgb(92.498779%, 31.164551%, 27.648926%)" offset="0.601562"/><stop stop-opacity="1" stop-color="rgb(92.498779%, 31.576538%, 27.099609%)" offset="0.605469"/><stop stop-opacity="1" stop-color="rgb(92.498779%, 31.799316%, 26.699829%)" offset="0.609375"/><stop stop-opacity="1" stop-color="rgb(92.498779%, 31.999207%, 26.498413%)" offset="0.613281"/><stop stop-opacity="1" stop-color="rgb(92.498779%, 32.199097%, 26.298523%)" offset="0.617187"/><stop stop-opacity="1" stop-color="rgb(92.498779%, 32.348633%, 26.098633%)" offset="0.621094"/><stop stop-opacity="1" stop-color="rgb(92.498779%, 32.499695%, 25.900269%)" offset="0.625"/><stop stop-opacity="1" stop-color="rgb(92.698669%, 32.688904%, 25.709534%)" offset="0.628906"/><stop stop-opacity="1" stop-color="rgb(92.89856%, 32.879639%, 25.518799%)" offset="0.632813"/><stop stop-opacity="1" stop-color="rgb(92.89856%, 33.070374%, 25.328064%)" offset="0.640625"/><stop stop-opacity="1" stop-color="rgb(92.89856%, 33.479309%, 24.89624%)" offset="0.644531"/><stop stop-opacity="1" stop-color="rgb(92.89856%, 33.699036%, 24.655151%)" offset="0.648438"/><stop stop-opacity="1" stop-color="rgb(92.89856%, 33.898926%, 24.464417%)" offset="0.652344"/><stop stop-opacity="1" stop-color="rgb(92.89856%, 34.098816%, 24.275208%)" offset="0.65625"/><stop stop-opacity="1" stop-color="rgb(92.89856%, 34.298706%, 24.084473%)" offset="0.660156"/><stop stop-opacity="1" stop-color="rgb(92.89856%, 34.498596%, 23.893738%)" offset="0.664062"/><stop stop-opacity="1" stop-color="rgb(93.092346%, 34.692383%, 23.695374%)" offset="0.667969"/><stop stop-opacity="1" stop-color="rgb(93.286133%, 34.886169%, 23.498535%)" offset="0.671875"/><stop stop-opacity="1" stop-color="rgb(93.292236%, 35.076904%, 23.114014%)" offset="0.675781"/><stop stop-opacity="1" stop-color="rgb(93.299866%, 35.267639%, 22.731018%)" offset="0.679688"/><stop stop-opacity="1" stop-color="rgb(93.299866%, 35.458374%, 22.583008%)" offset="0.6875"/><stop stop-opacity="1" stop-color="rgb(93.299866%, 35.873413%, 22.216797%)" offset="0.691406"/><stop stop-opacity="1" stop-color="rgb(93.299866%, 36.099243%, 21.998596%)" offset="0.695312"/><stop stop-opacity="1" stop-color="rgb(93.299866%, 36.299133%, 21.798706%)" offset="0.699219"/><stop stop-opacity="1" stop-color="rgb(93.299866%, 36.499023%, 21.598816%)" offset="0.703125"/><stop stop-opacity="1" stop-color="rgb(93.299866%, 36.695862%, 21.401978%)" offset="0.707031"/><stop stop-opacity="1" stop-color="rgb(93.299866%, 36.8927%, 21.205139%)" offset="0.710937"/><stop stop-opacity="1" stop-color="rgb(93.499756%, 37.083435%, 21.014404%)" offset="0.714844"/><stop stop-opacity="1" stop-color="rgb(93.699646%, 37.27417%, 20.825195%)" offset="0.71875"/><stop stop-opacity="1" stop-color="rgb(93.699646%, 37.419128%, 20.611572%)" offset="0.722656"/><stop stop-opacity="1" stop-color="rgb(93.699646%, 37.565613%, 20.399475%)" offset="0.726563"/><stop stop-opacity="1" stop-color="rgb(93.699646%, 37.782288%, 20.179749%)" offset="0.730469"/><stop stop-opacity="1" stop-color="rgb(93.699646%, 37.998962%, 19.961548%)" offset="0.734375"/><stop stop-opacity="1" stop-color="rgb(93.699646%, 38.198853%, 19.770813%)" offset="0.738281"/><stop stop-opacity="1" stop-color="rgb(93.699646%, 38.398743%, 19.580078%)" offset="0.742188"/><stop stop-opacity="1" stop-color="rgb(93.699646%, 38.598633%, 19.389343%)" offset="0.746094"/><stop stop-opacity="1" stop-color="rgb(93.699646%, 38.798523%, 19.198608%)" offset="0.75"/><stop stop-opacity="1" stop-color="rgb(93.899536%, 38.989258%, 18.807983%)" offset="0.753906"/><stop stop-opacity="1" stop-color="rgb(94.099426%, 39.179993%, 18.418884%)" offset="0.757812"/><stop stop-opacity="1" stop-color="rgb(94.099426%, 39.370728%, 18.228149%)" offset="0.765625"/><stop stop-opacity="1" stop-color="rgb(94.099426%, 39.779663%, 17.817688%)" offset="0.769531"/><stop stop-opacity="1" stop-color="rgb(94.099426%, 39.99939%, 17.599487%)" offset="0.773437"/><stop stop-opacity="1" stop-color="rgb(94.099426%, 40.19928%, 17.448425%)" offset="0.777344"/><stop stop-opacity="1" stop-color="rgb(94.099426%, 40.39917%, 17.298889%)" offset="0.78125"/><stop stop-opacity="1" stop-color="rgb(94.099426%, 40.59906%, 17.095947%)" offset="0.785156"/><stop stop-opacity="1" stop-color="rgb(94.099426%, 40.79895%, 16.893005%)" offset="0.789063"/><stop stop-opacity="1" stop-color="rgb(94.293213%, 40.992737%, 16.696167%)" offset="0.792969"/><stop stop-opacity="1" stop-color="rgb(94.487%, 41.186523%, 16.499329%)" offset="0.796875"/><stop stop-opacity="1" stop-color="rgb(94.493103%, 41.377258%, 16.299438%)" offset="0.800781"/><stop stop-opacity="1" stop-color="rgb(94.499207%, 41.567993%, 16.099548%)" offset="0.804688"/><stop stop-opacity="1" stop-color="rgb(94.499207%, 41.758728%, 15.899658%)" offset="0.808594"/><stop stop-opacity="1" stop-color="rgb(94.499207%, 41.949463%, 15.699768%)" offset="0.8125"/><stop stop-opacity="1" stop-color="rgb(94.499207%, 42.173767%, 15.483093%)" offset="0.816406"/><stop stop-opacity="1" stop-color="rgb(94.499207%, 42.399597%, 15.267944%)" offset="0.820312"/><stop stop-opacity="1" stop-color="rgb(94.499207%, 42.549133%, 14.883423%)" offset="0.824219"/><stop stop-opacity="1" stop-color="rgb(94.499207%, 42.698669%, 14.498901%)" offset="0.828125"/><stop stop-opacity="1" stop-color="rgb(94.499207%, 42.895508%, 14.302063%)" offset="0.832031"/><stop stop-opacity="1" stop-color="rgb(94.499207%, 43.092346%, 14.105225%)" offset="0.835938"/><stop stop-opacity="1" stop-color="rgb(94.699097%, 43.283081%, 13.91449%)" offset="0.839844"/><stop stop-opacity="1" stop-color="rgb(94.898987%, 43.473816%, 13.723755%)" offset="0.84375"/><stop stop-opacity="1" stop-color="rgb(94.898987%, 43.664551%, 13.53302%)" offset="0.851562"/><stop stop-opacity="1" stop-color="rgb(94.898987%, 44.076538%, 13.121033%)" offset="0.855469"/><stop stop-opacity="1" stop-color="rgb(94.898987%, 44.299316%, 12.89978%)" offset="0.859375"/><stop stop-opacity="1" stop-color="rgb(94.898987%, 44.299316%, 12.89978%)" offset="0.875"/><stop stop-opacity="1" stop-color="rgb(94.898987%, 44.299316%, 12.89978%)" offset="1"/></linearGradient><clipPath id="d9b302be03"><path d="M 315.152344 0.152344 L 1125 0.152344 L 1125 810 L 315.152344 810 Z M 315.152344 0.152344 " clip-rule="nonzero"/></clipPath><clipPath id="6bb09da622"><path d="M 1125.316406 405.234375 C 1125.316406 411.863281 1125.152344 418.488281 1124.828125 425.109375 C 1124.503906 431.730469 1124.015625 438.34375 1123.363281 444.9375 C 1122.714844 451.535156 1121.902344 458.113281 1120.929688 464.671875 C 1119.957031 471.230469 1118.824219 477.757812 1117.53125 484.261719 C 1116.238281 490.765625 1114.785156 497.230469 1113.175781 503.660156 C 1111.566406 510.09375 1109.796875 516.480469 1107.871094 522.824219 C 1105.949219 529.167969 1103.871094 535.460938 1101.636719 541.703125 C 1099.402344 547.945312 1097.015625 554.128906 1094.480469 560.253906 C 1091.945312 566.378906 1089.257812 572.4375 1086.421875 578.429688 C 1083.589844 584.421875 1080.609375 590.339844 1077.484375 596.1875 C 1074.359375 602.035156 1071.09375 607.800781 1067.683594 613.488281 C 1064.277344 619.175781 1060.730469 624.773438 1057.046875 630.285156 C 1053.363281 635.796875 1049.546875 641.214844 1045.597656 646.539062 C 1041.648438 651.867188 1037.570312 657.089844 1033.367188 662.214844 C 1029.160156 667.339844 1024.832031 672.359375 1020.378906 677.269531 C 1015.925781 682.183594 1011.359375 686.980469 1006.671875 691.671875 C 1001.980469 696.359375 997.183594 700.925781 992.269531 705.378906 C 987.359375 709.832031 982.339844 714.160156 977.214844 718.367188 C 972.089844 722.570312 966.867188 726.648438 961.542969 730.597656 C 956.214844 734.546875 950.796875 738.363281 945.285156 742.046875 C 939.773438 745.730469 934.175781 749.277344 928.488281 752.683594 C 922.800781 756.09375 917.035156 759.359375 911.1875 762.484375 C 905.339844 765.609375 899.421875 768.589844 893.429688 771.421875 C 887.4375 774.257812 881.378906 776.945312 875.253906 779.480469 C 869.128906 782.019531 862.945312 784.402344 856.703125 786.636719 C 850.460938 788.871094 844.167969 790.949219 837.824219 792.871094 C 831.480469 794.796875 825.09375 796.566406 818.660156 798.175781 C 812.230469 799.785156 805.765625 801.238281 799.261719 802.53125 C 792.757812 803.824219 786.230469 804.957031 779.671875 805.929688 C 773.113281 806.902344 766.535156 807.714844 759.9375 808.363281 C 753.339844 809.015625 746.730469 809.503906 740.109375 809.828125 C 733.488281 810.152344 726.863281 810.316406 720.234375 810.316406 C 713.605469 810.316406 706.980469 810.152344 700.359375 809.828125 C 693.738281 809.503906 687.128906 809.015625 680.53125 808.363281 C 673.933594 807.714844 667.355469 806.902344 660.796875 805.929688 C 654.238281 804.957031 647.710938 803.824219 641.207031 802.53125 C 634.703125 801.238281 628.238281 799.785156 621.808594 798.175781 C 615.375 796.566406 608.988281 794.796875 602.644531 792.871094 C 596.300781 790.949219 590.007812 788.871094 583.765625 786.636719 C 577.523438 784.402344 571.339844 782.019531 565.214844 779.480469 C 559.089844 776.945312 553.03125 774.257812 547.039062 771.421875 C 541.046875 768.589844 535.128906 765.609375 529.28125 762.484375 C 523.433594 759.359375 517.667969 756.09375 511.980469 752.683594 C 506.292969 749.277344 500.695312 745.730469 495.183594 742.046875 C 489.671875 738.363281 484.253906 734.546875 478.925781 730.597656 C 473.601562 726.648438 468.378906 722.570312 463.253906 718.367188 C 458.128906 714.160156 453.109375 709.832031 448.199219 705.378906 C 443.285156 700.925781 438.488281 696.359375 433.796875 691.671875 C 429.109375 686.980469 424.542969 682.183594 420.089844 677.269531 C 415.636719 672.359375 411.308594 667.339844 407.101562 662.214844 C 402.898438 657.089844 398.820312 651.867188 394.871094 646.542969 C 390.921875 641.214844 387.105469 635.796875 383.421875 630.285156 C 379.738281 624.773438 376.191406 619.175781 372.785156 613.488281 C 369.375 607.800781 366.109375 602.035156 362.984375 596.1875 C 359.859375 590.339844 356.878906 584.421875 354.046875 578.429688 C 351.210938 572.4375 348.523438 566.378906 345.988281 560.253906 C 343.449219 554.128906 341.066406 547.945312 338.832031 541.703125 C 336.597656 535.460938 334.519531 529.167969 332.597656 522.824219 C 330.671875 516.480469 328.902344 510.09375 327.292969 503.660156 C 325.683594 497.230469 324.230469 490.765625 322.9375 484.261719 C 321.644531 477.757812 320.511719 471.230469 319.539062 464.671875 C 318.566406 458.113281 317.753906 451.535156 317.105469 444.9375 C 316.453125 438.34375 315.964844 431.730469 315.640625 425.109375 C 315.316406 418.488281 315.152344 411.863281 315.152344 405.234375 C 315.152344 398.605469 315.316406 391.980469 315.640625 385.359375 C 315.964844 378.738281 316.453125 372.128906 317.105469 365.53125 C 317.753906 358.933594 318.566406 352.355469 319.539062 345.796875 C 320.511719 339.238281 321.644531 332.710938 322.9375 326.207031 C 324.230469 319.703125 325.683594 313.238281 327.292969 306.808594 C 328.902344 300.375 330.671875 293.988281 332.597656 287.644531 C 334.519531 281.300781 336.597656 275.007812 338.832031 268.765625 C 341.066406 262.523438 343.449219 256.339844 345.988281 250.214844 C 348.523438 244.089844 351.210938 238.03125 354.046875 232.039062 C 356.878906 226.046875 359.859375 220.128906 362.984375 214.28125 C 366.109375 208.433594 369.375 202.667969 372.785156 196.980469 C 376.191406 191.292969 379.738281 185.695312 383.421875 180.183594 C 387.105469 174.671875 390.921875 169.253906 394.871094 163.929688 C 398.820312 158.601562 402.898438 153.378906 407.101562 148.253906 C 411.308594 143.128906 415.636719 138.109375 420.089844 133.199219 C 424.542969 128.285156 429.109375 123.488281 433.796875 118.796875 C 438.488281 114.109375 443.285156 109.542969 448.199219 105.089844 C 453.109375 100.636719 458.128906 96.308594 463.253906 92.101562 C 468.378906 87.898438 473.601562 83.820312 478.925781 79.871094 C 484.253906 75.921875 489.671875 72.105469 495.183594 68.421875 C 500.695312 64.738281 506.292969 61.191406 511.980469 57.785156 C 517.667969 54.375 523.433594 51.109375 529.28125 47.984375 C 535.128906 44.859375 541.046875 41.878906 547.039062 39.046875 C 553.03125 36.210938 559.089844 33.523438 565.214844 30.988281 C 571.339844 28.449219 577.523438 26.066406 583.765625 23.832031 C 590.007812 21.597656 596.300781 19.519531 602.644531 17.597656 C 608.988281 15.671875 615.375 13.902344 621.808594 12.292969 C 628.238281 10.683594 634.703125 9.230469 641.207031 7.9375 C 647.710938 6.644531 654.238281 5.511719 660.796875 4.539062 C 667.355469 3.566406 673.933594 2.753906 680.53125 2.105469 C 687.128906 1.453125 693.738281 0.964844 700.359375 0.640625 C 706.980469 0.316406 713.605469 0.152344 720.234375 0.152344 C 726.863281 0.152344 733.488281 0.316406 740.109375 0.640625 C 746.730469 0.964844 753.339844 1.453125 759.9375 2.105469 C 766.535156 2.753906 773.113281 3.566406 779.671875 4.539062 C 786.230469 5.511719 792.757812 6.644531 799.261719 7.9375 C 805.765625 9.230469 812.230469 10.683594 818.660156 12.292969 C 825.09375 13.902344 831.480469 15.671875 837.824219 17.597656 C 844.167969 19.519531 850.460938 21.597656 856.703125 23.832031 C 862.945312 26.066406 869.128906 28.449219 875.253906 30.988281 C 881.378906 33.523438 887.4375 36.210938 893.429688 39.046875 C 899.421875 41.878906 905.339844 44.859375 911.1875 47.984375 C 917.035156 51.109375 922.800781 54.375 928.488281 57.785156 C 934.175781 61.191406 939.773438 64.738281 945.285156 68.421875 C 950.796875 72.105469 956.214844 75.921875 961.539062 79.871094 C 966.867188 83.820312 972.089844 87.898438 977.214844 92.101562 C 982.339844 96.308594 987.359375 100.636719 992.269531 105.089844 C 997.183594 109.542969 1001.980469 114.109375 1006.671875 118.796875 C 1011.359375 123.488281 1015.925781 128.285156 1020.378906 133.199219 C 1024.832031 138.109375 1029.160156 143.128906 1033.367188 148.253906 C 1037.570312 153.378906 1041.648438 158.601562 1045.597656 163.929688 C 1049.546875 169.253906 1053.363281 174.671875 1057.046875 180.183594 C 1060.730469 185.695312 1064.277344 191.292969 1067.683594 196.980469 C 1071.09375 202.667969 1074.359375 208.433594 1077.484375 214.28125 C 1080.609375 220.128906 1083.589844 226.046875 1086.421875 232.039062 C 1089.257812 238.03125 1091.945312 244.089844 1094.480469 250.214844 C 1097.015625 256.339844 1099.402344 262.523438 1101.636719 268.765625 C 1103.871094 275.007812 1105.949219 281.300781 1107.871094 287.644531 C 1109.796875 293.988281 1111.566406 300.375 1113.175781 306.808594 C 1114.785156 313.238281 1116.238281 319.703125 1117.53125 326.207031 C 1118.824219 332.710938 1119.957031 339.238281 1120.929688 345.796875 C 1121.902344 352.355469 1122.714844 358.933594 1123.363281 365.53125 C 1124.015625 372.128906 1124.503906 378.738281 1124.828125 385.359375 C 1125.152344 391.980469 1125.316406 398.605469 1125.316406 405.234375 Z M 1125.316406 405.234375 " clip-rule="nonzero"/></clipPath><linearGradient x1="2.064805" gradientTransform="matrix(4.7844, 0, 0, 4.7844, 305.431004, -9.56901)" y1="171.333185" x2="171.333188" gradientUnits="userSpaceOnUse" y2="2.064802" id="6bd046c0ce"><stop stop-opacity="1" stop-color="rgb(54.098511%, 13.699341%, 52.89917%)" offset="0"/><stop stop-opacity="1" stop-color="rgb(54.098511%, 13.699341%, 52.89917%)" offset="0.125"/><stop stop-opacity="1" stop-color="rgb(54.098511%, 13.699341%, 52.89917%)" offset="0.140625"/><stop stop-opacity="1" stop-color="rgb(54.519653%, 13.899231%, 52.682495%)" offset="0.144531"/><stop stop-opacity="1" stop-color="rgb(54.942322%, 14.099121%, 52.46582%)" offset="0.148438"/><stop stop-opacity="1" stop-color="rgb(55.532837%, 14.111328%, 52.319336%)" offset="0.152344"/><stop stop-opacity="1" stop-color="rgb(56.124878%, 14.123535%, 52.174377%)" offset="0.15625"/><stop stop-opacity="1" stop-color="rgb(56.515503%, 14.311218%, 51.786804%)" offset="0.160156"/><stop stop-opacity="1" stop-color="rgb(56.906128%, 14.498901%, 51.399231%)" offset="0.164062"/><stop stop-opacity="1" stop-color="rgb(57.247925%, 14.692688%, 51.205444%)" offset="0.167969"/><stop stop-opacity="1" stop-color="rgb(57.589722%, 14.886475%, 51.011658%)" offset="0.171875"/><stop stop-opacity="1" stop-color="rgb(57.978821%, 14.892578%, 50.820923%)" offset="0.175781"/><stop stop-opacity="1" stop-color="rgb(58.36792%, 14.898682%, 50.630188%)" offset="0.179688"/><stop stop-opacity="1" stop-color="rgb(58.758545%, 15.098572%, 50.439453%)" offset="0.183594"/><stop stop-opacity="1" stop-color="rgb(59.14917%, 15.299988%, 50.248718%)" offset="0.1875"/><stop stop-opacity="1" stop-color="rgb(59.605408%, 15.499878%, 50.022888%)" offset="0.191406"/><stop stop-opacity="1" stop-color="rgb(60.061646%, 15.699768%, 49.798584%)" offset="0.195312"/><stop stop-opacity="1" stop-color="rgb(60.636902%, 15.705872%, 49.59259%)" offset="0.199219"/><stop stop-opacity="1" stop-color="rgb(61.212158%, 15.711975%, 49.386597%)" offset="0.203125"/><stop stop-opacity="1" stop-color="rgb(61.602783%, 15.905762%, 49.19281%)" offset="0.207031"/><stop stop-opacity="1" stop-color="rgb(61.993408%, 16.099548%, 48.999023%)" offset="0.210937"/><stop stop-opacity="1" stop-color="rgb(62.336731%, 16.287231%, 48.799133%)" offset="0.214844"/><stop stop-opacity="1" stop-color="rgb(62.680054%, 16.474915%, 48.599243%)" offset="0.21875"/><stop stop-opacity="1" stop-color="rgb(63.067627%, 16.487122%, 48.399353%)" offset="0.222656"/><stop stop-opacity="1" stop-color="rgb(63.4552%, 16.499329%, 48.199463%)" offset="0.226562"/><stop stop-opacity="1" stop-color="rgb(63.91449%, 16.699219%, 47.984314%)" offset="0.230469"/><stop stop-opacity="1" stop-color="rgb(64.373779%, 16.899109%, 47.770691%)" offset="0.234375"/><stop stop-opacity="1" stop-color="rgb(64.945984%, 17.098999%, 47.434998%)" offset="0.238281"/><stop stop-opacity="1" stop-color="rgb(65.518188%, 17.298889%, 47.099304%)" offset="0.242187"/><stop stop-opacity="1" stop-color="rgb(65.908813%, 17.298889%, 46.899414%)" offset="0.246094"/><stop stop-opacity="1" stop-color="rgb(66.299438%, 17.298889%, 46.699524%)" offset="0.25"/><stop stop-opacity="1" stop-color="rgb(66.690063%, 17.448425%, 46.508789%)" offset="0.253906"/><stop stop-opacity="1" stop-color="rgb(67.080688%, 17.599487%, 46.318054%)" offset="0.257812"/><stop stop-opacity="1" stop-color="rgb(67.425537%, 17.779541%, 46.127319%)" offset="0.261719"/><stop stop-opacity="1" stop-color="rgb(67.770386%, 17.961121%, 45.936584%)" offset="0.265625"/><stop stop-opacity="1" stop-color="rgb(68.206787%, 18.002319%, 45.695496%)" offset="0.269531"/><stop stop-opacity="1" stop-color="rgb(68.643188%, 18.043518%, 45.455933%)" offset="0.273438"/><stop stop-opacity="1" stop-color="rgb(69.233704%, 18.22052%, 45.265198%)" offset="0.277344"/><stop stop-opacity="1" stop-color="rgb(69.824219%, 18.399048%, 45.074463%)" offset="0.28125"/><stop stop-opacity="1" stop-color="rgb(70.214844%, 18.598938%, 44.883728%)" offset="0.285156"/><stop stop-opacity="1" stop-color="rgb(70.605469%, 18.798828%, 44.692993%)" offset="0.289063"/><stop stop-opacity="1" stop-color="rgb(70.996094%, 18.798828%, 44.496155%)" offset="0.292969"/><stop stop-opacity="1" stop-color="rgb(71.386719%, 18.798828%, 44.299316%)" offset="0.296875"/><stop stop-opacity="1" stop-color="rgb(71.777344%, 18.998718%, 44.099426%)" offset="0.300781"/><stop stop-opacity="1" stop-color="rgb(72.167969%, 19.198608%, 43.899536%)" offset="0.304688"/><stop stop-opacity="1" stop-color="rgb(72.50824%, 19.374084%, 43.52417%)" offset="0.308594"/><stop stop-opacity="1" stop-color="rgb(72.848511%, 19.549561%, 43.148804%)" offset="0.3125"/><stop stop-opacity="1" stop-color="rgb(73.48938%, 19.589233%, 42.922974%)" offset="0.316406"/><stop stop-opacity="1" stop-color="rgb(74.130249%, 19.630432%, 42.698669%)" offset="0.320313"/><stop stop-opacity="1" stop-color="rgb(74.520874%, 19.815063%, 42.549133%)" offset="0.324219"/><stop stop-opacity="1" stop-color="rgb(74.911499%, 19.999695%, 42.399597%)" offset="0.328125"/><stop stop-opacity="1" stop-color="rgb(75.302124%, 20.196533%, 42.202759%)" offset="0.332031"/><stop stop-opacity="1" stop-color="rgb(75.692749%, 20.393372%, 42.00592%)" offset="0.335938"/><stop stop-opacity="1" stop-color="rgb(76.083374%, 20.396423%, 41.815186%)" offset="0.339844"/><stop stop-opacity="1" stop-color="rgb(76.473999%, 20.399475%, 41.624451%)" offset="0.34375"/><stop stop-opacity="1" stop-color="rgb(76.864624%, 20.599365%, 41.433716%)" offset="0.347656"/><stop stop-opacity="1" stop-color="rgb(77.255249%, 20.799255%, 41.242981%)" offset="0.351563"/><stop stop-opacity="1" stop-color="rgb(77.664185%, 20.999146%, 41.001892%)" offset="0.355469"/><stop stop-opacity="1" stop-color="rgb(78.074646%, 21.199036%, 40.762329%)" offset="0.359375"/><stop stop-opacity="1" stop-color="rgb(78.645325%, 21.208191%, 40.571594%)" offset="0.363281"/><stop stop-opacity="1" stop-color="rgb(79.217529%, 21.217346%, 40.380859%)" offset="0.367188"/><stop stop-opacity="1" stop-color="rgb(79.608154%, 21.408081%, 40.190125%)" offset="0.371094"/><stop stop-opacity="1" stop-color="rgb(79.998779%, 21.598816%, 39.99939%)" offset="0.375"/><stop stop-opacity="1" stop-color="rgb(80.389404%, 21.789551%, 39.7995%)" offset="0.378906"/><stop stop-opacity="1" stop-color="rgb(80.780029%, 21.980286%, 39.599609%)" offset="0.382812"/><stop stop-opacity="1" stop-color="rgb(81.170654%, 21.989441%, 39.21814%)" offset="0.386719"/><stop stop-opacity="1" stop-color="rgb(81.561279%, 21.998596%, 38.83667%)" offset="0.390625"/><stop stop-opacity="1" stop-color="rgb(82.017517%, 22.198486%, 38.616943%)" offset="0.394531"/><stop stop-opacity="1" stop-color="rgb(82.475281%, 22.399902%, 38.398743%)" offset="0.398438"/><stop stop-opacity="1" stop-color="rgb(82.998657%, 22.549438%, 38.198853%)" offset="0.402344"/><stop stop-opacity="1" stop-color="rgb(83.52356%, 22.698975%, 37.998962%)" offset="0.40625"/><stop stop-opacity="1" stop-color="rgb(83.914185%, 22.702026%, 37.799072%)" offset="0.410156"/><stop stop-opacity="1" stop-color="rgb(84.30481%, 22.705078%, 37.599182%)" offset="0.414062"/><stop stop-opacity="1" stop-color="rgb(84.695435%, 22.901917%, 37.454224%)" offset="0.417969"/><stop stop-opacity="1" stop-color="rgb(85.08606%, 23.098755%, 37.309265%)" offset="0.421875"/><stop stop-opacity="1" stop-color="rgb(85.476685%, 23.283386%, 37.103271%)" offset="0.425781"/><stop stop-opacity="1" stop-color="rgb(85.86731%, 23.468018%, 36.898804%)" offset="0.429688"/><stop stop-opacity="1" stop-color="rgb(86.257935%, 23.483276%, 36.698914%)" offset="0.433594"/><stop stop-opacity="1" stop-color="rgb(86.64856%, 23.498535%, 36.499023%)" offset="0.4375"/><stop stop-opacity="1" stop-color="rgb(87.239075%, 23.698425%, 36.283875%)" offset="0.441406"/><stop stop-opacity="1" stop-color="rgb(87.831116%, 23.899841%, 36.068726%)" offset="0.445312"/><stop stop-opacity="1" stop-color="rgb(88.221741%, 24.099731%, 35.877991%)" offset="0.449219"/><stop stop-opacity="1" stop-color="rgb(88.612366%, 24.299622%, 35.687256%)" offset="0.453125"/><stop stop-opacity="1" stop-color="rgb(89.002991%, 24.299622%, 35.493469%)" offset="0.457031"/><stop stop-opacity="1" stop-color="rgb(89.393616%, 24.299622%, 35.299683%)" offset="0.460938"/><stop stop-opacity="1" stop-color="rgb(89.784241%, 24.499512%, 34.912109%)" offset="0.464844"/><stop stop-opacity="1" stop-color="rgb(90.174866%, 24.699402%, 34.524536%)" offset="0.46875"/><stop stop-opacity="1" stop-color="rgb(90.565491%, 24.876404%, 34.333801%)" offset="0.472656"/><stop stop-opacity="1" stop-color="rgb(90.956116%, 25.054932%, 34.143066%)" offset="0.476562"/><stop stop-opacity="1" stop-color="rgb(91.177368%, 25.276184%, 33.920288%)" offset="0.480469"/><stop stop-opacity="1" stop-color="rgb(91.398621%, 25.498962%, 33.699036%)" offset="0.484375"/><stop stop-opacity="1" stop-color="rgb(91.398621%, 25.698853%, 33.499146%)" offset="0.488281"/><stop stop-opacity="1" stop-color="rgb(91.398621%, 25.898743%, 33.299255%)" offset="0.492188"/><stop stop-opacity="1" stop-color="rgb(91.598511%, 26.098633%, 33.099365%)" offset="0.496094"/><stop stop-opacity="1" stop-color="rgb(91.799927%, 26.298523%, 32.899475%)" offset="0.5"/><stop stop-opacity="1" stop-color="rgb(91.799927%, 26.489258%, 32.699585%)" offset="0.503906"/><stop stop-opacity="1" stop-color="rgb(91.799927%, 26.679993%, 32.499695%)" offset="0.507812"/><stop stop-opacity="1" stop-color="rgb(91.799927%, 26.870728%, 32.348633%)" offset="0.515625"/><stop stop-opacity="1" stop-color="rgb(91.799927%, 27.279663%, 31.976318%)" offset="0.519531"/><stop stop-opacity="1" stop-color="rgb(91.799927%, 27.49939%, 31.755066%)" offset="0.523438"/><stop stop-opacity="1" stop-color="rgb(91.799927%, 27.648926%, 31.564331%)" offset="0.53125"/><stop stop-opacity="1" stop-color="rgb(91.802979%, 27.999878%, 30.986023%)" offset="0.535156"/><stop stop-opacity="1" stop-color="rgb(91.80603%, 28.199768%, 30.599976%)" offset="0.539062"/><stop stop-opacity="1" stop-color="rgb(92.002869%, 28.393555%, 30.406189%)" offset="0.542969"/><stop stop-opacity="1" stop-color="rgb(92.199707%, 28.587341%, 30.212402%)" offset="0.546875"/><stop stop-opacity="1" stop-color="rgb(92.199707%, 28.77655%, 30.021667%)" offset="0.554688"/><stop stop-opacity="1" stop-color="rgb(92.199707%, 29.15802%, 29.640198%)" offset="0.5625"/><stop stop-opacity="1" stop-color="rgb(92.199707%, 29.573059%, 29.208374%)" offset="0.566406"/><stop stop-opacity="1" stop-color="rgb(92.199707%, 29.798889%, 28.967285%)" offset="0.570312"/><stop stop-opacity="1" stop-color="rgb(92.199707%, 29.998779%, 28.77655%)" offset="0.574219"/><stop stop-opacity="1" stop-color="rgb(92.199707%, 30.198669%, 28.587341%)" offset="0.578125"/><stop stop-opacity="1" stop-color="rgb(92.346191%, 30.395508%, 28.393555%)" offset="0.582031"/><stop stop-opacity="1" stop-color="rgb(92.494202%, 30.592346%, 28.199768%)" offset="0.585938"/><stop stop-opacity="1" stop-color="rgb(92.495728%, 30.783081%, 27.999878%)" offset="0.589844"/><stop stop-opacity="1" stop-color="rgb(92.498779%, 30.973816%, 27.799988%)" offset="0.59375"/><stop stop-opacity="1" stop-color="rgb(92.498779%, 31.164551%, 27.648926%)" offset="0.601562"/><stop stop-opacity="1" stop-color="rgb(92.498779%, 31.576538%, 27.099609%)" offset="0.605469"/><stop stop-opacity="1" stop-color="rgb(92.498779%, 31.799316%, 26.699829%)" offset="0.609375"/><stop stop-opacity="1" stop-color="rgb(92.498779%, 31.999207%, 26.498413%)" offset="0.613281"/><stop stop-opacity="1" stop-color="rgb(92.498779%, 32.199097%, 26.298523%)" offset="0.617188"/><stop stop-opacity="1" stop-color="rgb(92.498779%, 32.348633%, 26.098633%)" offset="0.621094"/><stop stop-opacity="1" stop-color="rgb(92.498779%, 32.499695%, 25.898743%)" offset="0.625"/><stop stop-opacity="1" stop-color="rgb(92.698669%, 32.69043%, 25.708008%)" offset="0.628906"/><stop stop-opacity="1" stop-color="rgb(92.89856%, 32.881165%, 25.517273%)" offset="0.632812"/><stop stop-opacity="1" stop-color="rgb(92.89856%, 33.070374%, 25.326538%)" offset="0.640625"/><stop stop-opacity="1" stop-color="rgb(92.89856%, 33.479309%, 24.89624%)" offset="0.644531"/><stop stop-opacity="1" stop-color="rgb(92.89856%, 33.699036%, 24.655151%)" offset="0.648438"/><stop stop-opacity="1" stop-color="rgb(92.89856%, 33.898926%, 24.464417%)" offset="0.652344"/><stop stop-opacity="1" stop-color="rgb(92.89856%, 34.098816%, 24.273682%)" offset="0.65625"/><stop stop-opacity="1" stop-color="rgb(92.89856%, 34.298706%, 24.082947%)" offset="0.660156"/><stop stop-opacity="1" stop-color="rgb(92.89856%, 34.498596%, 23.892212%)" offset="0.664062"/><stop stop-opacity="1" stop-color="rgb(93.092346%, 34.692383%, 23.695374%)" offset="0.667969"/><stop stop-opacity="1" stop-color="rgb(93.286133%, 34.886169%, 23.498535%)" offset="0.671875"/><stop stop-opacity="1" stop-color="rgb(93.292236%, 35.076904%, 23.114014%)" offset="0.675781"/><stop stop-opacity="1" stop-color="rgb(93.299866%, 35.267639%, 22.731018%)" offset="0.679688"/><stop stop-opacity="1" stop-color="rgb(93.299866%, 35.458374%, 22.583008%)" offset="0.6875"/><stop stop-opacity="1" stop-color="rgb(93.299866%, 35.873413%, 22.216797%)" offset="0.691406"/><stop stop-opacity="1" stop-color="rgb(93.299866%, 36.099243%, 21.998596%)" offset="0.695312"/><stop stop-opacity="1" stop-color="rgb(93.299866%, 36.299133%, 21.798706%)" offset="0.699219"/><stop stop-opacity="1" stop-color="rgb(93.299866%, 36.499023%, 21.598816%)" offset="0.703125"/><stop stop-opacity="1" stop-color="rgb(93.299866%, 36.695862%, 21.401978%)" offset="0.707031"/><stop stop-opacity="1" stop-color="rgb(93.299866%, 36.8927%, 21.205139%)" offset="0.710938"/><stop stop-opacity="1" stop-color="rgb(93.499756%, 37.083435%, 21.014404%)" offset="0.714844"/><stop stop-opacity="1" stop-color="rgb(93.699646%, 37.27417%, 20.823669%)" offset="0.71875"/><stop stop-opacity="1" stop-color="rgb(93.699646%, 37.420654%, 20.611572%)" offset="0.722656"/><stop stop-opacity="1" stop-color="rgb(93.699646%, 37.567139%, 20.399475%)" offset="0.726562"/><stop stop-opacity="1" stop-color="rgb(93.699646%, 37.782288%, 20.179749%)" offset="0.730469"/><stop stop-opacity="1" stop-color="rgb(93.699646%, 37.998962%, 19.961548%)" offset="0.734375"/><stop stop-opacity="1" stop-color="rgb(93.699646%, 38.198853%, 19.770813%)" offset="0.738281"/><stop stop-opacity="1" stop-color="rgb(93.699646%, 38.398743%, 19.580078%)" offset="0.742188"/><stop stop-opacity="1" stop-color="rgb(93.699646%, 38.598633%, 19.389343%)" offset="0.746094"/><stop stop-opacity="1" stop-color="rgb(93.699646%, 38.798523%, 19.198608%)" offset="0.75"/><stop stop-opacity="1" stop-color="rgb(93.899536%, 38.989258%, 18.807983%)" offset="0.753906"/><stop stop-opacity="1" stop-color="rgb(94.099426%, 39.179993%, 18.417358%)" offset="0.757812"/><stop stop-opacity="1" stop-color="rgb(94.099426%, 39.370728%, 18.226624%)" offset="0.765625"/><stop stop-opacity="1" stop-color="rgb(94.099426%, 39.779663%, 17.817688%)" offset="0.769531"/><stop stop-opacity="1" stop-color="rgb(94.099426%, 39.99939%, 17.599487%)" offset="0.773438"/><stop stop-opacity="1" stop-color="rgb(94.099426%, 40.19928%, 17.448425%)" offset="0.777344"/><stop stop-opacity="1" stop-color="rgb(94.099426%, 40.39917%, 17.298889%)" offset="0.78125"/><stop stop-opacity="1" stop-color="rgb(94.099426%, 40.59906%, 17.095947%)" offset="0.785156"/><stop stop-opacity="1" stop-color="rgb(94.099426%, 40.79895%, 16.893005%)" offset="0.789062"/><stop stop-opacity="1" stop-color="rgb(94.293213%, 40.992737%, 16.696167%)" offset="0.792969"/><stop stop-opacity="1" stop-color="rgb(94.487%, 41.186523%, 16.499329%)" offset="0.796875"/><stop stop-opacity="1" stop-color="rgb(94.493103%, 41.377258%, 16.299438%)" offset="0.800781"/><stop stop-opacity="1" stop-color="rgb(94.499207%, 41.567993%, 16.099548%)" offset="0.804688"/><stop stop-opacity="1" stop-color="rgb(94.499207%, 41.758728%, 15.899658%)" offset="0.808594"/><stop stop-opacity="1" stop-color="rgb(94.499207%, 41.949463%, 15.699768%)" offset="0.8125"/><stop stop-opacity="1" stop-color="rgb(94.499207%, 42.173767%, 15.483093%)" offset="0.816406"/><stop stop-opacity="1" stop-color="rgb(94.499207%, 42.399597%, 15.267944%)" offset="0.820312"/><stop stop-opacity="1" stop-color="rgb(94.499207%, 42.549133%, 14.883423%)" offset="0.824219"/><stop stop-opacity="1" stop-color="rgb(94.499207%, 42.698669%, 14.498901%)" offset="0.828125"/><stop stop-opacity="1" stop-color="rgb(94.499207%, 42.895508%, 14.302063%)" offset="0.832031"/><stop stop-opacity="1" stop-color="rgb(94.499207%, 43.092346%, 14.105225%)" offset="0.835938"/><stop stop-opacity="1" stop-color="rgb(94.699097%, 43.283081%, 13.91449%)" offset="0.839844"/><stop stop-opacity="1" stop-color="rgb(94.898987%, 43.473816%, 13.723755%)" offset="0.84375"/><stop stop-opacity="1" stop-color="rgb(94.898987%, 43.664551%, 13.53302%)" offset="0.851562"/><stop stop-opacity="1" stop-color="rgb(94.898987%, 44.076538%, 13.121033%)" offset="0.855469"/><stop stop-opacity="1" stop-color="rgb(94.898987%, 44.299316%, 12.89978%)" offset="0.859375"/><stop stop-opacity="1" stop-color="rgb(94.898987%, 44.299316%, 12.89978%)" offset="0.875"/><stop stop-opacity="1" stop-color="rgb(94.898987%, 44.299316%, 12.89978%)" offset="1"/></linearGradient></defs><g clip-path="url(#7555de4280)"><g clip-path="url(#906521dd7a)"><path fill="url(#ed32100ca4)" d="M 622.242188 341.953125 L 622.242188 467.929688 L 748.21875 467.929688 L 748.21875 341.953125 Z M 622.242188 341.953125 " fill-rule="nonzero"/></g></g><path fill="#ffffff" d="M 691.324219 384.554688 C 697.316406 384.554688 702.222656 388.640625 702.222656 393.640625 L 702.222656 402.726562 L 668.289062 402.726562 L 668.289062 393.640625 C 668.289062 388.640625 673.191406 384.554688 679.1875 384.554688 C 679.1875 387.347656 681.902344 389.613281 685.253906 389.613281 C 688.605469 389.613281 691.324219 387.347656 691.324219 384.554688 Z M 691.324219 384.554688 " fill-opacity="1" fill-rule="evenodd"/><path fill="#ffffff" d="M 693.894531 373.097656 C 693.894531 373.664062 693.839844 374.226562 693.730469 374.785156 C 693.621094 375.339844 693.457031 375.882812 693.238281 376.40625 C 693.019531 376.929688 692.753906 377.425781 692.441406 377.898438 C 692.125 378.371094 691.765625 378.808594 691.363281 379.207031 C 690.964844 379.609375 690.527344 379.96875 690.054688 380.285156 C 689.582031 380.597656 689.085938 380.863281 688.5625 381.082031 C 688.039062 381.300781 687.496094 381.464844 686.941406 381.574219 C 686.382812 381.683594 685.820312 381.738281 685.253906 381.738281 C 684.6875 381.738281 684.125 381.683594 683.570312 381.574219 C 683.011719 381.464844 682.472656 381.300781 681.949219 381.082031 C 681.421875 380.863281 680.925781 380.597656 680.453125 380.285156 C 679.980469 379.96875 679.546875 379.609375 679.144531 379.207031 C 678.742188 378.808594 678.386719 378.371094 678.070312 377.898438 C 677.753906 377.425781 677.488281 376.929688 677.269531 376.40625 C 677.054688 375.882812 676.890625 375.339844 676.78125 374.785156 C 676.667969 374.226562 676.613281 373.664062 676.613281 373.097656 C 676.613281 372.53125 676.667969 371.96875 676.78125 371.414062 C 676.890625 370.855469 677.054688 370.316406 677.269531 369.792969 C 677.488281 369.265625 677.753906 368.769531 678.070312 368.296875 C 678.386719 367.824219 678.742188 367.390625 679.144531 366.988281 C 679.546875 366.585938 679.980469 366.226562 680.453125 365.914062 C 680.925781 365.597656 681.421875 365.332031 681.949219 365.113281 C 682.472656 364.898438 683.011719 364.734375 683.570312 364.621094 C 684.125 364.511719 684.6875 364.457031 685.253906 364.457031 C 685.820312 364.457031 686.382812 364.511719 686.941406 364.621094 C 687.496094 364.734375 688.039062 364.898438 688.5625 365.113281 C 689.085938 365.332031 689.582031 365.597656 690.054688 365.914062 C 690.527344 366.226562 690.964844 366.585938 691.363281 366.988281 C 691.765625 367.390625 692.125 367.824219 692.441406 368.296875 C 692.753906 368.769531 693.019531 369.265625 693.238281 369.792969 C 693.457031 370.316406 693.621094 370.855469 693.730469 371.414062 C 693.839844 371.96875 693.894531 372.53125 693.894531 373.097656 Z M 693.894531 373.097656 " fill-opacity="1" fill-rule="nonzero"/><path fill="#ffffff" d="M 714.496094 427.300781 C 720.488281 427.300781 725.394531 431.390625 725.394531 436.386719 L 725.394531 445.472656 L 691.457031 445.472656 L 691.457031 436.386719 C 691.457031 431.390625 696.363281 427.300781 702.355469 427.300781 C 702.355469 430.09375 705.074219 432.359375 708.425781 432.359375 C 711.777344 432.359375 714.496094 430.09375 714.496094 427.300781 Z M 714.496094 427.300781 " fill-opacity="1" fill-rule="evenodd"/><path fill="#ffffff" d="M 717.066406 415.84375 C 717.066406 416.414062 717.011719 416.976562 716.902344 417.53125 C 716.789062 418.085938 716.625 418.628906 716.410156 419.152344 C 716.191406 419.675781 715.925781 420.175781 715.609375 420.644531 C 715.296875 421.117188 714.9375 421.554688 714.535156 421.957031 C 714.136719 422.355469 713.699219 422.714844 713.226562 423.03125 C 712.753906 423.34375 712.257812 423.613281 711.734375 423.828125 C 711.207031 424.046875 710.667969 424.210938 710.113281 424.320312 C 709.554688 424.429688 708.992188 424.488281 708.425781 424.488281 C 707.859375 424.488281 707.296875 424.429688 706.738281 424.320312 C 706.183594 424.210938 705.644531 424.046875 705.117188 423.828125 C 704.59375 423.613281 704.097656 423.34375 703.625 423.03125 C 703.152344 422.714844 702.714844 422.355469 702.316406 421.957031 C 701.914062 421.554688 701.554688 421.117188 701.242188 420.644531 C 700.925781 420.175781 700.660156 419.675781 700.441406 419.152344 C 700.226562 418.628906 700.0625 418.085938 699.949219 417.53125 C 699.839844 416.976562 699.785156 416.414062 699.785156 415.84375 C 699.785156 415.277344 699.839844 414.714844 699.949219 414.160156 C 700.0625 413.601562 700.226562 413.0625 700.441406 412.539062 C 700.660156 412.015625 700.925781 411.515625 701.242188 411.042969 C 701.554688 410.574219 701.914062 410.136719 702.316406 409.734375 C 702.714844 409.332031 703.152344 408.976562 703.625 408.660156 C 704.097656 408.34375 704.59375 408.078125 705.117188 407.863281 C 705.644531 407.644531 706.183594 407.480469 706.738281 407.371094 C 707.296875 407.257812 707.859375 407.203125 708.425781 407.203125 C 708.992188 407.203125 709.554688 407.257812 710.113281 407.371094 C 710.667969 407.480469 711.207031 407.644531 711.734375 407.863281 C 712.257812 408.078125 712.753906 408.34375 713.226562 408.660156 C 713.699219 408.976562 714.136719 409.332031 714.535156 409.734375 C 714.9375 410.136719 715.296875 410.574219 715.609375 411.042969 C 715.925781 411.515625 716.191406 412.015625 716.410156 412.539062 C 716.625 413.0625 716.789062 413.601562 716.902344 414.160156 C 717.011719 414.714844 717.066406 415.277344 717.066406 415.84375 Z M 717.066406 415.84375 " fill-opacity="1" fill-rule="nonzero"/><path fill="#ffffff" d="M 668.152344 427.300781 C 674.144531 427.300781 679.050781 431.390625 679.050781 436.386719 L 679.050781 445.472656 L 645.117188 445.472656 L 645.117188 436.386719 C 645.117188 431.390625 650.019531 427.300781 656.015625 427.300781 C 656.015625 430.09375 658.730469 432.359375 662.082031 432.359375 C 665.433594 432.359375 668.152344 430.09375 668.152344 427.300781 Z M 668.152344 427.300781 " fill-opacity="1" fill-rule="evenodd"/><path fill="#ffffff" d="M 670.726562 415.84375 C 670.726562 416.414062 670.667969 416.976562 670.558594 417.53125 C 670.449219 418.085938 670.285156 418.628906 670.066406 419.152344 C 669.851562 419.675781 669.582031 420.175781 669.269531 420.644531 C 668.953125 421.117188 668.59375 421.554688 668.195312 421.957031 C 667.792969 422.355469 667.355469 422.714844 666.882812 423.03125 C 666.414062 423.34375 665.914062 423.613281 665.390625 423.828125 C 664.867188 424.046875 664.324219 424.210938 663.769531 424.320312 C 663.210938 424.429688 662.652344 424.488281 662.082031 424.488281 C 661.515625 424.488281 660.953125 424.429688 660.398438 424.320312 C 659.839844 424.210938 659.300781 424.046875 658.777344 423.828125 C 658.253906 423.613281 657.753906 423.34375 657.28125 423.03125 C 656.8125 422.714844 656.375 422.355469 655.972656 421.957031 C 655.570312 421.554688 655.214844 421.117188 654.898438 420.644531 C 654.582031 420.175781 654.316406 419.675781 654.101562 419.152344 C 653.882812 418.628906 653.71875 418.085938 653.609375 417.53125 C 653.496094 416.976562 653.441406 416.414062 653.441406 415.84375 C 653.441406 415.277344 653.496094 414.714844 653.609375 414.160156 C 653.71875 413.601562 653.882812 413.0625 654.101562 412.539062 C 654.316406 412.015625 654.582031 411.515625 654.898438 411.042969 C 655.214844 410.574219 655.570312 410.136719 655.972656 409.734375 C 656.375 409.332031 656.8125 408.976562 657.28125 408.660156 C 657.753906 408.34375 658.253906 408.078125 658.777344 407.863281 C 659.300781 407.644531 659.839844 407.480469 660.398438 407.371094 C 660.953125 407.257812 661.515625 407.203125 662.082031 407.203125 C 662.652344 407.203125 663.210938 407.257812 663.769531 407.371094 C 664.324219 407.480469 664.867188 407.644531 665.390625 407.863281 C 665.914062 408.078125 666.414062 408.34375 666.882812 408.660156 C 667.355469 408.976562 667.792969 409.332031 668.195312 409.734375 C 668.59375 410.136719 668.953125 410.574219 669.269531 411.042969 C 669.582031 411.515625 669.851562 412.015625 670.066406 412.539062 C 670.285156 413.0625 670.449219 413.601562 670.558594 414.160156 C 670.667969 414.714844 670.726562 415.277344 670.726562 415.84375 Z M 670.726562 415.84375 " fill-opacity="1" fill-rule="nonzero"/><path fill="#ffffff" d="M 689.660156 439.269531 C 686.738281 439.753906 683.765625 439.753906 680.851562 439.269531 L 680.851562 436.386719 C 680.851562 436.125 680.839844 435.867188 680.816406 435.609375 C 683.742188 436.171875 686.765625 436.171875 689.691406 435.609375 C 689.667969 435.867188 689.660156 436.125 689.660156 436.386719 Z M 703.808594 391.644531 C 708.0625 395.074219 710.492188 400.46875 711.554688 405.878906 C 710.566406 405.570312 709.515625 405.402344 708.425781 405.402344 C 708.207031 405.402344 707.992188 405.410156 707.777344 405.425781 C 707.066406 402.421875 705.863281 399.429688 704.023438 397 L 704.023438 393.640625 C 704.023438 392.964844 703.949219 392.296875 703.808594 391.644531 Z M 658.953125 405.882812 C 660.015625 400.464844 662.445312 395.070312 666.703125 391.640625 C 666.558594 392.296875 666.488281 392.964844 666.488281 393.640625 L 666.488281 397 C 664.648438 399.429688 663.441406 402.421875 662.730469 405.425781 C 662.515625 405.410156 662.300781 405.402344 662.082031 405.402344 C 660.992188 405.402344 659.941406 405.570312 658.953125 405.882812 Z M 658.953125 405.882812 " fill-opacity="1" fill-rule="nonzero"/><g clip-path="url(#d9b302be03)"><g clip-path="url(#6bb09da622)"><path fill="url(#6bd046c0ce)" d="M 315.152344 0.152344 L 315.152344 810 L 1125 810 L 1125 0.152344 Z M 315.152344 0.152344 " fill-rule="nonzero"/></g></g><path fill="#ffffff" d="M 759.246094 274.015625 C 797.777344 274.015625 829.308594 300.300781 829.308594 332.425781 L 829.308594 390.839844 L 611.160156 390.839844 L 611.160156 332.425781 C 611.160156 300.300781 642.6875 274.015625 681.21875 274.015625 C 681.21875 291.976562 698.6875 306.539062 720.234375 306.539062 C 741.777344 306.539062 759.246094 291.976562 759.246094 274.015625 Z M 759.246094 274.015625 " fill-opacity="1" fill-rule="evenodd"/><path fill="#ffffff" d="M 775.785156 200.375 C 775.785156 202.195312 775.695312 204.011719 775.519531 205.820312 C 775.339844 207.632812 775.074219 209.429688 774.71875 211.214844 C 774.363281 212.996094 773.921875 214.761719 773.394531 216.5 C 772.867188 218.242188 772.253906 219.953125 771.558594 221.632812 C 770.859375 223.316406 770.085938 224.957031 769.226562 226.5625 C 768.367188 228.167969 767.433594 229.726562 766.425781 231.238281 C 765.414062 232.75 764.332031 234.210938 763.175781 235.617188 C 762.023438 237.023438 760.800781 238.371094 759.515625 239.65625 C 758.230469 240.941406 756.882812 242.164062 755.476562 243.316406 C 754.070312 244.472656 752.609375 245.554688 751.097656 246.566406 C 749.585938 247.574219 748.027344 248.511719 746.421875 249.367188 C 744.816406 250.226562 743.175781 251.003906 741.492188 251.699219 C 739.8125 252.394531 738.101562 253.007812 736.359375 253.535156 C 734.617188 254.0625 732.855469 254.503906 731.070312 254.859375 C 729.289062 255.214844 727.488281 255.480469 725.679688 255.660156 C 723.867188 255.839844 722.054688 255.925781 720.234375 255.925781 C 718.414062 255.925781 716.601562 255.839844 714.789062 255.660156 C 712.980469 255.480469 711.179688 255.214844 709.398438 254.859375 C 707.613281 254.503906 705.847656 254.0625 704.109375 253.535156 C 702.367188 253.007812 700.65625 252.394531 698.976562 251.699219 C 697.292969 251.003906 695.652344 250.226562 694.046875 249.367188 C 692.441406 248.511719 690.882812 247.574219 689.371094 246.566406 C 687.859375 245.554688 686.398438 244.472656 684.992188 243.316406 C 683.585938 242.164062 682.238281 240.941406 680.953125 239.65625 C 679.667969 238.371094 678.445312 237.023438 677.292969 235.617188 C 676.136719 234.210938 675.054688 232.75 674.042969 231.238281 C 673.035156 229.726562 672.101562 228.167969 671.242188 226.5625 C 670.382812 224.957031 669.609375 223.316406 668.910156 221.632812 C 668.214844 219.953125 667.601562 218.242188 667.074219 216.5 C 666.546875 214.761719 666.105469 212.996094 665.75 211.214844 C 665.394531 209.429688 665.128906 207.632812 664.949219 205.820312 C 664.773438 204.011719 664.683594 202.195312 664.683594 200.375 C 664.683594 198.554688 664.773438 196.742188 664.949219 194.929688 C 665.128906 193.121094 665.394531 191.324219 665.75 189.539062 C 666.105469 187.753906 666.546875 185.992188 667.074219 184.25 C 667.601562 182.507812 668.214844 180.796875 668.910156 179.117188 C 669.609375 177.4375 670.382812 175.792969 671.242188 174.1875 C 672.101562 172.585938 673.035156 171.027344 674.042969 169.511719 C 675.054688 168 676.136719 166.539062 677.292969 165.132812 C 678.445312 163.726562 679.667969 162.382812 680.953125 161.09375 C 682.238281 159.808594 683.585938 158.585938 684.992188 157.433594 C 686.398438 156.28125 687.859375 155.195312 689.371094 154.1875 C 690.882812 153.175781 692.441406 152.242188 694.046875 151.382812 C 695.652344 150.527344 697.292969 149.75 698.976562 149.050781 C 700.65625 148.355469 702.367188 147.746094 704.109375 147.214844 C 705.847656 146.6875 707.613281 146.246094 709.398438 145.890625 C 711.179688 145.535156 712.980469 145.269531 714.789062 145.089844 C 716.601562 144.914062 718.414062 144.824219 720.234375 144.824219 C 722.054688 144.824219 723.867188 144.914062 725.679688 145.089844 C 727.488281 145.269531 729.289062 145.535156 731.070312 145.890625 C 732.855469 146.246094 734.621094 146.6875 736.359375 147.214844 C 738.101562 147.746094 739.8125 148.355469 741.492188 149.050781 C 743.175781 149.75 744.816406 150.527344 746.421875 151.382812 C 748.027344 152.242188 749.585938 153.175781 751.097656 154.1875 C 752.609375 155.195312 754.070312 156.28125 755.476562 157.433594 C 756.882812 158.585938 758.230469 159.808594 759.515625 161.09375 C 760.800781 162.382812 762.023438 163.726562 763.175781 165.132812 C 764.332031 166.539062 765.414062 168 766.425781 169.511719 C 767.433594 171.027344 768.367188 172.585938 769.226562 174.1875 C 770.085938 175.792969 770.859375 177.4375 771.558594 179.117188 C 772.253906 180.796875 772.867188 182.507812 773.394531 184.25 C 773.921875 185.992188 774.363281 187.753906 774.71875 189.539062 C 775.074219 191.324219 775.339844 193.121094 775.519531 194.929688 C 775.695312 196.742188 775.785156 198.554688 775.785156 200.375 Z M 775.785156 200.375 " fill-opacity="1" fill-rule="nonzero"/><path fill="#ffffff" d="M 908.203125 548.8125 C 946.738281 548.8125 978.265625 575.101562 978.265625 607.226562 L 978.265625 665.640625 L 760.117188 665.640625 L 760.117188 607.226562 C 760.117188 575.101562 791.644531 548.8125 830.179688 548.8125 C 830.179688 566.777344 847.644531 581.339844 869.191406 581.339844 C 890.738281 581.339844 908.203125 566.777344 908.203125 548.8125 Z M 908.203125 548.8125 " fill-opacity="1" fill-rule="evenodd"/><path fill="#ffffff" d="M 924.742188 475.175781 C 924.742188 476.996094 924.65625 478.8125 924.476562 480.621094 C 924.296875 482.433594 924.03125 484.230469 923.675781 486.015625 C 923.320312 487.800781 922.878906 489.5625 922.351562 491.304688 C 921.824219 493.042969 921.210938 494.753906 920.515625 496.4375 C 919.820312 498.117188 919.042969 499.761719 918.183594 501.363281 C 917.328125 502.96875 916.390625 504.527344 915.382812 506.039062 C 914.371094 507.554688 913.289062 509.011719 912.132812 510.417969 C 910.980469 511.824219 909.757812 513.171875 908.472656 514.457031 C 907.1875 515.746094 905.839844 516.964844 904.433594 518.121094 C 903.027344 519.273438 901.566406 520.355469 900.054688 521.367188 C 898.542969 522.378906 896.984375 523.3125 895.378906 524.167969 C 893.773438 525.027344 892.132812 525.804688 890.449219 526.5 C 888.769531 527.195312 887.058594 527.808594 885.316406 528.335938 C 883.578125 528.867188 881.8125 529.308594 880.03125 529.660156 C 878.246094 530.015625 876.449219 530.285156 874.636719 530.460938 C 872.828125 530.640625 871.011719 530.730469 869.191406 530.730469 C 867.371094 530.730469 865.558594 530.640625 863.746094 530.460938 C 861.9375 530.285156 860.140625 530.015625 858.355469 529.660156 C 856.570312 529.308594 854.808594 528.867188 853.066406 528.335938 C 851.324219 527.808594 849.613281 527.195312 847.933594 526.5 C 846.253906 525.804688 844.609375 525.027344 843.003906 524.167969 C 841.402344 523.3125 839.84375 522.378906 838.328125 521.367188 C 836.816406 520.355469 835.355469 519.273438 833.949219 518.121094 C 832.542969 516.964844 831.199219 515.746094 829.910156 514.457031 C 828.625 513.171875 827.402344 511.824219 826.25 510.417969 C 825.097656 509.011719 824.011719 507.554688 823.003906 506.039062 C 821.992188 504.527344 821.058594 502.96875 820.199219 501.363281 C 819.34375 499.761719 818.566406 498.117188 817.867188 496.4375 C 817.171875 494.753906 816.558594 493.042969 816.03125 491.304688 C 815.503906 489.5625 815.0625 487.800781 814.707031 486.015625 C 814.351562 484.230469 814.085938 482.433594 813.90625 480.621094 C 813.730469 478.8125 813.640625 476.996094 813.640625 475.175781 C 813.640625 473.359375 813.730469 471.542969 813.90625 469.734375 C 814.085938 467.921875 814.351562 466.125 814.707031 464.339844 C 815.0625 462.554688 815.503906 460.792969 816.03125 459.050781 C 816.5625 457.3125 817.171875 455.601562 817.867188 453.917969 C 818.566406 452.238281 819.34375 450.59375 820.199219 448.992188 C 821.058594 447.386719 821.992188 445.828125 823.003906 444.316406 C 824.011719 442.800781 825.097656 441.34375 826.25 439.9375 C 827.402344 438.53125 828.625 437.183594 829.910156 435.898438 C 831.199219 434.609375 832.542969 433.390625 833.949219 432.234375 C 835.355469 431.082031 836.816406 430 838.328125 428.988281 C 839.84375 427.976562 841.402344 427.042969 843.003906 426.183594 C 844.609375 425.328125 846.253906 424.550781 847.933594 423.855469 C 849.613281 423.160156 851.324219 422.546875 853.066406 422.019531 C 854.808594 421.488281 856.570312 421.046875 858.355469 420.691406 C 860.140625 420.339844 861.9375 420.070312 863.746094 419.894531 C 865.558594 419.714844 867.371094 419.625 869.191406 419.625 C 871.011719 419.625 872.828125 419.714844 874.636719 419.894531 C 876.449219 420.070312 878.246094 420.339844 880.03125 420.691406 C 881.8125 421.046875 883.578125 421.488281 885.316406 422.019531 C 887.058594 422.546875 888.769531 423.160156 890.449219 423.855469 C 892.132812 424.550781 893.773438 425.328125 895.378906 426.183594 C 896.984375 427.042969 898.542969 427.976562 900.054688 428.988281 C 901.566406 430 903.027344 431.082031 904.433594 432.234375 C 905.839844 433.390625 907.1875 434.609375 908.472656 435.898438 C 909.757812 437.183594 910.980469 438.53125 912.132812 439.9375 C 913.289062 441.34375 914.371094 442.800781 915.382812 444.316406 C 916.390625 445.828125 917.328125 447.386719 918.183594 448.992188 C 919.042969 450.59375 919.820312 452.238281 920.515625 453.917969 C 921.210938 455.601562 921.824219 457.3125 922.351562 459.050781 C 922.878906 460.792969 923.320312 462.554688 923.675781 464.339844 C 924.03125 466.125 924.296875 467.921875 924.476562 469.734375 C 924.65625 471.542969 924.742188 473.359375 924.742188 475.175781 Z M 924.742188 475.175781 " fill-opacity="1" fill-rule="nonzero"/><path fill="#ffffff" d="M 610.285156 548.8125 C 648.820312 548.8125 680.347656 575.101562 680.347656 607.226562 L 680.347656 665.640625 L 462.199219 665.640625 L 462.199219 607.226562 C 462.199219 575.101562 493.726562 548.8125 532.261719 548.8125 C 532.261719 566.777344 549.730469 581.339844 571.273438 581.339844 C 592.820312 581.339844 610.285156 566.777344 610.285156 548.8125 Z M 610.285156 548.8125 " fill-opacity="1" fill-rule="evenodd"/><path fill="#ffffff" d="M 626.828125 475.175781 C 626.828125 476.996094 626.738281 478.8125 626.5625 480.621094 C 626.382812 482.433594 626.117188 484.230469 625.761719 486.015625 C 625.40625 487.800781 624.964844 489.5625 624.4375 491.304688 C 623.910156 493.042969 623.296875 494.753906 622.601562 496.4375 C 621.902344 498.117188 621.125 499.761719 620.269531 501.363281 C 619.410156 502.96875 618.476562 504.527344 617.464844 506.039062 C 616.457031 507.554688 615.371094 509.011719 614.21875 510.417969 C 613.066406 511.824219 611.84375 513.171875 610.558594 514.457031 C 609.269531 515.746094 607.925781 516.964844 606.519531 518.121094 C 605.113281 519.273438 603.652344 520.355469 602.140625 521.367188 C 600.625 522.378906 599.066406 523.3125 597.464844 524.167969 C 595.859375 525.027344 594.214844 525.804688 592.535156 526.5 C 590.855469 527.195312 589.144531 527.808594 587.402344 528.335938 C 585.660156 528.867188 583.898438 529.308594 582.113281 529.660156 C 580.328125 530.015625 578.53125 530.285156 576.722656 530.460938 C 574.910156 530.640625 573.097656 530.730469 571.277344 530.730469 C 569.457031 530.730469 567.640625 530.640625 565.832031 530.460938 C 564.019531 530.285156 562.222656 530.015625 560.4375 529.660156 C 558.65625 529.308594 556.890625 528.867188 555.152344 528.335938 C 553.410156 527.808594 551.699219 527.195312 550.019531 526.5 C 548.335938 525.804688 546.695312 525.027344 545.089844 524.167969 C 543.484375 523.3125 541.925781 522.378906 540.414062 521.367188 C 538.902344 520.355469 537.441406 519.273438 536.035156 518.121094 C 534.628906 516.964844 533.28125 515.746094 531.996094 514.457031 C 530.710938 513.171875 529.488281 511.824219 528.335938 510.417969 C 527.179688 509.011719 526.097656 507.554688 525.085938 506.039062 C 524.078125 504.527344 523.140625 502.96875 522.285156 501.363281 C 521.425781 499.761719 520.648438 498.117188 519.953125 496.4375 C 519.257812 494.753906 518.644531 493.042969 518.117188 491.304688 C 517.589844 489.5625 517.148438 487.800781 516.792969 486.015625 C 516.4375 484.230469 516.171875 482.433594 515.992188 480.621094 C 515.8125 478.8125 515.726562 476.996094 515.726562 475.175781 C 515.726562 473.359375 515.8125 471.542969 515.992188 469.734375 C 516.171875 467.921875 516.4375 466.125 516.792969 464.339844 C 517.148438 462.554688 517.589844 460.792969 518.117188 459.050781 C 518.644531 457.3125 519.257812 455.601562 519.953125 453.917969 C 520.648438 452.238281 521.425781 450.59375 522.285156 448.992188 C 523.140625 447.386719 524.078125 445.828125 525.085938 444.316406 C 526.097656 442.800781 527.179688 441.34375 528.335938 439.9375 C 529.488281 438.53125 530.710938 437.183594 531.996094 435.898438 C 533.28125 434.609375 534.628906 433.390625 536.035156 432.234375 C 537.441406 431.082031 538.902344 430 540.414062 428.988281 C 541.925781 427.976562 543.484375 427.042969 545.089844 426.183594 C 546.695312 425.328125 548.335938 424.550781 550.019531 423.855469 C 551.699219 423.160156 553.410156 422.546875 555.152344 422.019531 C 556.890625 421.488281 558.65625 421.046875 560.4375 420.691406 C 562.222656 420.339844 564.019531 420.070312 565.832031 419.894531 C 567.640625 419.714844 569.457031 419.625 571.277344 419.625 C 573.097656 419.625 574.910156 419.714844 576.722656 419.894531 C 578.53125 420.070312 580.328125 420.339844 582.113281 420.691406 C 583.898438 421.046875 585.660156 421.488281 587.402344 422.019531 C 589.144531 422.546875 590.855469 423.160156 592.535156 423.855469 C 594.214844 424.550781 595.859375 425.328125 597.464844 426.183594 C 599.066406 427.042969 600.625 427.976562 602.140625 428.988281 C 603.652344 430 605.113281 431.082031 606.519531 432.234375 C 607.925781 433.390625 609.269531 434.609375 610.558594 435.898438 C 611.84375 437.183594 613.066406 438.53125 614.21875 439.9375 C 615.371094 441.34375 616.457031 442.800781 617.464844 444.316406 C 618.476562 445.828125 619.410156 447.386719 620.269531 448.992188 C 621.125 450.59375 621.902344 452.238281 622.601562 453.917969 C 623.296875 455.601562 623.910156 457.3125 624.4375 459.050781 C 624.964844 460.792969 625.40625 462.554688 625.761719 464.339844 C 626.117188 466.125 626.382812 467.921875 626.5625 469.734375 C 626.738281 471.542969 626.828125 473.359375 626.828125 475.175781 Z M 626.828125 475.175781 " fill-opacity="1" fill-rule="nonzero"/><path fill="#ffffff" d="M 748.542969 625.753906 C 729.769531 628.882812 710.671875 628.878906 691.921875 625.75 L 691.921875 607.226562 C 691.921875 605.558594 691.851562 603.894531 691.714844 602.238281 C 710.511719 605.851562 729.953125 605.851562 748.75 602.238281 C 748.613281 603.894531 748.542969 605.558594 748.542969 607.226562 Z M 839.5 319.597656 C 866.859375 341.648438 882.476562 376.320312 889.308594 411.121094 C 882.957031 409.128906 876.199219 408.050781 869.191406 408.050781 C 867.789062 408.050781 866.398438 408.101562 865.019531 408.183594 C 860.453125 388.886719 852.707031 369.644531 840.878906 354.03125 L 840.878906 332.425781 C 840.878906 328.101562 840.414062 323.804688 839.5 319.597656 Z M 551.148438 411.121094 C 557.984375 376.316406 573.601562 341.636719 600.964844 319.585938 C 600.050781 323.796875 599.585938 328.097656 599.585938 332.425781 L 599.585938 354.019531 C 587.753906 369.636719 580.003906 388.882812 575.4375 408.183594 C 574.058594 408.097656 572.671875 408.050781 571.273438 408.050781 C 564.261719 408.050781 557.503906 409.128906 551.148438 411.121094 Z M 551.148438 411.121094 " fill-opacity="1" fill-rule="nonzero"/></svg>